<?xml version="1.0" encoding="utf-8"?>
<!-- Generator: Adobe Illustrator 15.1.0, SVG Export Plug-In . SVG Version: 6.00 Build 0)  -->
<!DOCTYPE svg PUBLIC "-//W3C//DTD SVG 1.1//EN" "http://www.w3.org/Graphics/SVG/1.1/DTD/svg11.dtd">
<svg version="1.1" id="Layer_1" xmlns="http://www.w3.org/2000/svg" xmlns:xlink="http://www.w3.org/1999/xlink" x="0px" y="0px"
	 width="412px" height="404.094px" viewBox="50 53.953 412 404.094" enable-background="new 50 53.953 412 404.094"
	 xml:space="preserve">
<g id="google-plus-icon">
	<path d="M462,141.347h-54.621v54.622h-27.311v-54.622h-54.623v-27.311h54.623v-54.62h27.311v54.621H462V141.347z M307.583,367.26
		c0,40.943-37.384,90.787-131.434,90.787C107.365,458.047,50,428.379,50,378.478c0-38.514,24.383-88.511,138.323-88.511
		c-16.922-13.792-21.075-33.076-10.733-53.959c-66.714,0-100.879-39.222-100.879-89.023c0-48.731,36.242-93.032,110.15-93.032
		c18.66,0,118.398,0,118.398,0l-26.457,27.77h-31.079c21.925,12.562,33.585,38.433,33.585,66.949
		c0,26.175-14.412,47.375-34.982,63.279c-36.503,28.222-27.158,43.98,11.087,71.872C295.121,312.074,307.583,333.882,307.583,367.26
		z M233.738,150.453c-5.506-41.905-32.806-76.284-64.704-77.243c-31.909-0.949-53.309,31.119-47.798,73.035
		c5.509,41.905,35.834,71.178,67.749,72.139C220.882,219.333,239.242,192.363,233.738,150.453z M266.631,371.463
		c0-34.466-31.441-67.316-84.192-67.316c-47.542-0.523-87.832,30.041-87.832,65.471c0,36.154,34.335,66.25,81.879,66.25
		C237.267,435.866,266.631,407.617,266.631,371.463z"/>
</g>
</svg>
