<?xml version="1.0" encoding="utf-8"?>
<!-- Generator: Adobe Illustrator 15.1.0, SVG Export Plug-In . SVG Version: 6.00 Build 0)  -->
<!DOCTYPE svg PUBLIC "-//W3C//DTD SVG 1.1//EN" "http://www.w3.org/Graphics/SVG/1.1/DTD/svg11.dtd">
<svg version="1.1" id="Layer_1" xmlns="http://www.w3.org/2000/svg" xmlns:xlink="http://www.w3.org/1999/xlink" x="0px" y="0px"
	 width="411.792px" height="412px" viewBox="50.104 50 411.792 412" enable-background="new 50.104 50 411.792 412"
	 xml:space="preserve">
<path id="linkedin-icon" d="M150.65,100.682c0,27.992-22.508,50.683-50.273,50.683s-50.273-22.691-50.273-50.683
	C50.104,72.691,72.612,50,100.377,50C128.143,50,150.65,72.691,150.65,100.682z M143.294,187.333H58.277V462h85.017V187.333z
	 M279.195,187.333h-81.542V462h81.542c0,0,0-101.877,0-144.181c0-38.624,17.779-61.615,51.807-61.615
	c31.268,0,46.289,22.071,46.289,61.615c0,39.545,0,144.181,0,144.181h84.605c0,0,0-100.344,0-173.915
	c0-73.571-41.689-109.131-99.935-109.131s-82.769,45.369-82.769,45.369v-36.99H279.195z"/>
</svg>
