<?xml version="1.0" encoding="utf-8"?>
<!-- Generator: Adobe Illustrator 15.1.0, SVG Export Plug-In . SVG Version: 6.00 Build 0)  -->
<!DOCTYPE svg PUBLIC "-//W3C//DTD SVG 1.1//EN" "http://www.w3.org/Graphics/SVG/1.1/DTD/svg11.dtd">
<svg version="1.1" id="Layer_1" xmlns="http://www.w3.org/2000/svg" xmlns:xlink="http://www.w3.org/1999/xlink" x="0px" y="0px"
	 width="281.846px" height="464.225px" viewBox="28 23.887 281.846 464.225" enable-background="new 28 23.887 281.846 464.225"
	 xml:space="preserve">
<path id="mobile-phone-6-icon" d="M63.145,23.887C43.735,23.887,28,39.628,28,59.046v393.908c0,19.416,15.735,35.158,35.145,35.158
	h211.558c19.408,0,35.144-15.742,35.144-35.158V59.02c0-19.403-15.725-35.131-35.116-35.131L63.145,23.887L63.145,23.887z
	 M119.716,424.168H76.143v-34.455h43.574V424.168z M119.716,361.877H76.143v-34.455h43.574V361.877z M190.711,424.168h-43.575
	v-34.455h43.575V424.168z M190.711,361.877h-43.575v-34.455h43.575V361.877z M261.706,424.168h-43.574v-34.455h43.574V424.168z
	 M261.706,361.877h-43.574v-34.455h43.574V361.877z M261.706,278.491H76.143V96.217h185.563V278.491z"/>
</svg>
