<?xml version="1.0" encoding="utf-8"?>
<!-- Generator: Adobe Illustrator 15.1.0, SVG Export Plug-In . SVG Version: 6.00 Build 0)  -->
<!DOCTYPE svg PUBLIC "-//W3C//DTD SVG 1.1//EN" "http://www.w3.org/Graphics/SVG/1.1/DTD/svg11.dtd">
<svg version="1.1" id="Layer_x5F_1" xmlns="http://www.w3.org/2000/svg" xmlns:xlink="http://www.w3.org/1999/xlink" x="0px"
	 y="0px" width="80px" height="52px" viewBox="0 0 80 52" enable-background="new 0 0 80 52" xml:space="preserve">
<path fill-rule="evenodd" clip-rule="evenodd" d="M37,0v23l-7,4h-3H16h-4c-2,0-3,1-4,2L0,52h7l5-11v11h20V34l0,0l5-3v7h43V0H37z
	 M76,34H41v-5l17-8c2-1,3-3,2-4v-1c-1-1-3-2-5-1l-14,6V4h35V34z M22,25c4,0,7-3,7-7c0-5-3-8-7-8s-8,3-8,8C14,22,18,25,22,25z"/>
</svg>
