<?xml version="1.0" encoding="utf-8"?>
<!-- Generator: Adobe Illustrator 16.0.0, SVG Export Plug-In . SVG Version: 6.00 Build 0)  -->
<!DOCTYPE svg PUBLIC "-//W3C//DTD SVG 1.1//EN" "http://www.w3.org/Graphics/SVG/1.1/DTD/svg11.dtd">
<svg version="1.1"
	 id="Layer_1" sodipodi:docname="20090101024514!Metro-M.svg" inkscape:version="0.46" inkscape:output_extension="org.inkscape.output.svg.inkscape" sodipodi:version="0.32" xmlns:inkscape="http://www.inkscape.org/namespaces/inkscape" xmlns:rdf="http://www.w3.org/1999/02/22-rdf-syntax-ns#" xmlns:sodipodi="http://sodipodi.sourceforge.net/DTD/sodipodi-0.dtd" xmlns:cc="http://creativecommons.org/ns#" xmlns:dc="http://purl.org/dc/elements/1.1/" xmlns:svg="http://www.w3.org/2000/svg"
	 xmlns="http://www.w3.org/2000/svg" xmlns:xlink="http://www.w3.org/1999/xlink" x="0px" y="0px" width="400px" height="400px"
	 viewBox="0 0 400 400" enable-background="new 0 0 400 400" xml:space="preserve">
<defs>
	
	
		<inkscape:perspective  inkscape:persp3d-origin="200 : 133.33333 : 1" sodipodi:type="inkscape:persp3d" inkscape:vp_x="0 : 200 : 1" inkscape:vp_y="0 : 1000 : 0" id="perspective10" inkscape:vp_z="400 : 200 : 1">
		</inkscape:perspective>
</defs>
<sodipodi:namedview  inkscape:window-width="1231" inkscape:window-height="942" inkscape:pageshadow="2" inkscape:pageopacity="0.0" inkscape:current-layer="Layer_1" inkscape:window-x="207" inkscape:window-y="0" showgrid="false" borderopacity="1.0" guidetolerance="10.0" gridtolerance="10.0" pagecolor="#ffffff" bordercolor="#666666" objecttolerance="10.0" inkscape:cx="126.90217" inkscape:cy="200" inkscape:zoom="1.165" id="base">
	</sodipodi:namedview>
<path id="path3157" fill="#1D1D1B" stroke="#FFFFFF" stroke-width="10" stroke-miterlimit="10" d="M392.5,200.954
	C392.5,94.119,302.981,7.5,200.474,7.5C94.115,7.5,7.5,94.119,7.5,200.954C7.5,306.821,94.115,392.5,200.474,392.5
	C306.832,392.5,392.5,307.296,392.5,200.954"/>
<path fill="#FFFFFF" d="M291.5,270.529c0,6.17-4.89,11.173-10.92,11.173H120.42c-6.031,0-10.92-5.003-10.92-11.173V84.673
	c0-6.171,4.889-11.173,10.92-11.173h160.16c6.03,0,10.92,5.002,10.92,11.173V270.529z"/>
<path fill="#1D1D1B" d="M261.5,189.479c0,5.81-3.992,10.521-8.914,10.521H149.325c-4.923,0-8.915-4.711-8.915-10.521v-88.458
	c0-5.811,3.991-10.521,8.915-10.521h103.261c4.922,0,8.914,4.71,8.914,10.521V189.479z"/>
<circle fill="#1D1D1B" cx="140.5" cy="254.702" r="11"/>
<circle fill="#1D1D1B" cx="261.5" cy="254.702" r="11"/>
<line fill="none" stroke="#FFFFFF" stroke-width="20" stroke-miterlimit="10" x1="151.685" y1="278.269" x2="131.315" y2="342.934"/>
<line fill="none" stroke="#FFFFFF" stroke-width="20" stroke-miterlimit="10" x1="251.304" y1="278.271" x2="271.696" y2="342.931"/>
<line fill="none" stroke="#FFFFFF" stroke-width="7" stroke-miterlimit="10" x1="201" y1="78.5" x2="201" y2="57.25"/>
<line fill="none" stroke="#FFFFFF" stroke-width="7" stroke-miterlimit="10" x1="242.5" y1="57.25" x2="159.5" y2="57.25"/>
</svg>
